<svg width="85" height="89" viewBox="0 0 85 89" fill="none" xmlns="http://www.w3.org/2000/svg">
<path d="M81.1469 16.746C71.8119 23.6408 53.0796 37.4959 52.8307 37.7578L51.4259 47.7291L66.2262 60.6242L68.8345 55.9113H77.7253L74.7568 45.0733L85 31.2448L77.7253 28.8744L81.1469 16.746Z" fill="#6C32FE"/>
<path d="M9.32167 65.8937C16.0345 62.3954 29.5223 55.3551 29.7711 55.1805L30.5538 71.2721L22.6269 83.7417L20.6723 78.1596L13.1111 76.5397L15.1225 69.6147L9.32167 65.8937Z" fill="white"/>
<path d="M31.0354 47.0311L35.31 46.0056C36.4003 46.5147 38.6433 47.5722 38.8921 47.7293C39.141 47.8864 40.9491 39.5326 41.8221 35.336L30.2729 21.4045L7.21451 0L10.9507 14.9435L0 13.1569L9.32167 28.0241L2.76941 37.4743L13.7815 45.6404L12.0008 54.6896L31.0354 47.0311Z" fill="white"/>
<path d="M32.1412 51.2307L35.1113 45.8523C35.1581 45.0377 35.2618 43.3649 35.3019 43.1904C35.3421 43.0158 35.4926 41.9322 35.5628 41.4121C35.8471 40.8194 36.4157 39.599 36.4157 39.4593C36.4157 39.3197 37.4726 38.2156 38.0011 37.6811L42.4362 34.8882L44.1018 34.6919L45.2156 34.8882L49.6507 29.7389L40.4996 26.4224L46.4398 22.8804L44.3828 16.6365H51.7277L48.3362 6.42521L56.6946 11.0958L59.454 5.51971L63.9558 17.2918L68.294 15.0219L65.4443 24.066L67.11 29.0843L66.508 30.9935L73.592 40.2666L59.8754 33.71L57.5776 36.6774L55.9621 39.9939L56.4438 40.8776C56.8451 41.7612 57.6559 43.5482 57.688 43.6268C57.7201 43.7053 57.7883 44.9177 57.8184 45.5141L57.2866 48.6452L55.7815 51.5362L51.2963 56.38L51.7277 56.7291L52.1291 57.0783C52.4335 57.3583 53.0623 57.9401 53.1425 58.0274C53.2429 58.1365 53.6844 58.9329 53.6844 59.1183V60.3729L53.9453 61.5403L53.2028 63.1112L51.0856 66.6896L50.5337 66.8314L50.3531 67.4423L55.7414 70.4534H56.6946C56.9455 70.5261 57.4753 70.6846 57.5877 70.737C57.7 70.7894 57.9957 71.0934 58.1295 71.2388L58.3101 70.9988L59.0827 70.137L59.0627 69.3079L59.4239 69.1769L61.0394 67.2678L61.4407 66.6896L62.103 67.0932L63.3171 67.3769H64.5312C65.2236 67.5514 66.6324 67.9136 66.7287 67.966C66.825 68.0183 67.1903 68.606 67.3609 68.8933L67.9228 69.417C68.2204 69.9879 68.8319 71.1516 68.8961 71.2388C68.9603 71.3261 69.3242 73.2535 69.4981 74.2062L68.3442 72.5371L65.1935 69.9843L66.0665 72.2098L64.8122 70.9988L59.0827 75.6354L57.4472 78.5264L56.6946 79.781L57.5877 80.7193L58.8118 81.1665L60.3872 80.8829L58.6312 81.952H57.2666L55.6511 80.992L55.1193 80.8829L54.1861 80.3701L54.0055 79.781L54.8885 78.09V77.4573L55.7414 75.9518L55.3801 75.6354L54.7982 74.959C54.6945 74.7517 54.4691 74.3153 54.3968 74.2281C54.3246 74.1408 54.2864 73.6899 54.2764 73.4753L48.3061 70.2024L47.9951 70.3988L47.2826 70.6388L46.2592 70.1043C45.9581 69.8788 45.328 69.4104 45.2156 69.3406C45.1032 69.2708 44.9748 68.3733 44.9246 67.9333C44.9815 67.4023 45.0952 66.323 45.0952 66.2532C45.0952 66.1834 45.5367 65.2859 45.7575 64.8459L45.3561 64.4749C45.3093 64.1367 45.2156 63.4451 45.2156 63.384C45.2156 63.3076 45.7073 62.0966 45.7575 62.0312C45.7976 61.9788 46.2291 61.6021 46.4398 61.4203L47.8646 58.9329L47.7241 58.1256L40.5096 61.1912L36.9475 61.7475L33.8269 66.8859L32.6128 67.8132V68.7297L34.9206 73.7917V74.4353L36.6465 75.2099L38.8139 73.9553V73.4099L39.3758 73.0171L42.0248 74.8608V76.05L42.5265 76.8245L43.4797 77.5991L45.1654 79.4101L45.4063 82.5411L44.1921 84.9631L43.7406 79.9229L42.5265 78.7992L42.2255 81.2538L40.921 79.4101L36.6465 81.2538L33.6764 85.1922L33.5259 86.7413C33.6463 86.9995 33.9052 87.5726 33.9774 87.7995C34.0497 88.0265 35.332 88.6941 35.9642 88.9996L32.7834 88.5741L31.1579 85.9995L31.6295 83.8285V82.7375L32.7834 80.632C32.8135 80.3447 32.8556 79.7374 32.7834 79.6065C32.6931 79.4428 31.78 78.6355 31.78 78.5046V76.5736L32.2215 75.6027L29.8033 70.4861L29.3216 70.8788L28.4085 70.137L28.2781 68.7297L27.9068 67.8132L28.2781 67.0605L27.375 63.744C27.676 61.8203 28.2781 57.8746 28.2781 57.4819C28.2781 57.0892 28.9938 55.2382 29.3517 54.3618L32.1412 51.2307Z" fill="white"/>
<path d="M59.7928 28.6258L59.3613 25.9202L62.4318 28.9421L62.3013 29.9895L61.6391 30.5349L59.7928 29.6622V28.6258Z" fill="black"/>
</svg>
